<?xml version="1.0" standalone="no"?>
<!DOCTYPE svg PUBLIC "-//W3C//DTD SVG 20010904//EN"
 "http://www.w3.org/TR/2001/REC-SVG-20010904/DTD/svg10.dtd">
<svg version="1.0" xmlns="http://www.w3.org/2000/svg"
 width="339.000000pt" height="339.000000pt" viewBox="0 0 339.000000 339.000000"
 preserveAspectRatio="xMidYMid meet">
<metadata>
Created by potrace 1.14, written by Peter Selinger 2001-2017
</metadata>
<g transform="translate(0.000000,339.000000) scale(0.100000,-0.100000)"
fill="#000000" stroke="none">
<path d="M2273 2956 c-17 -18 -37 -43 -45 -55 l-15 -21 -44 19 c-95 42 -222
31 -286 -24 -36 -31 -38 -35 -37 -91 1 -60 24 -121 78 -209 l24 -40 -64 -86
-64 -86 -58 12 c-95 19 -147 3 -191 -60 -33 -48 -30 -99 9 -168 l32 -56 -29
-38 c-60 -80 -64 -84 -100 -77 -48 9 -79 -2 -104 -38 -25 -34 -29 -100 -10
-135 7 -15 1 -29 -31 -71 -40 -51 -40 -51 -69 -37 -31 17 -59 20 -59 7 0 -11
34 -42 46 -42 5 0 14 -11 20 -24 10 -22 8 -28 -23 -58 -31 -30 -71 -100 -88
-158 -7 -21 -5 -23 6 -13 22 17 610 153 663 153 13 0 -3 -12 -41 -31 -35 -16
-63 -35 -63 -41 0 -6 8 -4 18 5 9 8 38 25 63 35 59 25 71 42 30 42 -35 0 -265
-47 -470 -96 -79 -19 -145 -33 -147 -31 -2 1 14 20 35 40 22 21 46 53 55 71
12 26 21 33 35 29 13 -3 23 2 30 16 7 12 18 21 26 21 48 0 95 61 80 102 -4 9
16 46 47 91 l53 76 63 -2 c59 -2 66 0 89 27 21 25 24 36 20 75 -3 25 -10 58
-16 73 -9 24 -4 35 48 110 42 60 64 82 77 81 11 -2 53 -6 95 -9 70 -6 78 -5
115 20 93 61 108 161 41 255 -21 28 -37 55 -37 59 0 5 30 50 66 101 71 100 78
102 110 39 39 -75 148 -168 197 -168 32 0 32 -5 6 91 -12 46 -42 85 -82 105
-18 9 -51 34 -74 56 l-41 40 38 60 c54 83 34 124 -27 54z m-133 -152 c5 -5
-14 -39 -53 -88 l-61 -80 -22 50 c-36 81 -37 91 -13 115 18 18 30 21 80 17 33
-2 64 -9 69 -14z m-130 -385 c0 -36 -31 -69 -65 -69 -14 0 -25 2 -25 5 0 14
73 104 81 99 5 -3 9 -18 9 -35z m-270 -150 c0 -6 -14 -29 -32 -51 -29 -38 -32
-39 -45 -22 -18 25 -16 61 5 73 23 14 72 14 72 0z m-79 -312 c-16 -16 -26 0
-10 19 9 11 15 12 17 4 2 -6 -1 -17 -7 -23z m-194 -56 c-7 -9 -22 -27 -34 -41
l-23 -25 0 27 c0 32 23 57 50 55 16 -1 17 -4 7 -16z"/>
<path d="M563 2459 c-51 -25 -123 -95 -173 -169 -43 -64 -47 -75 -66 -175 -3
-16 -10 -50 -15 -75 -6 -25 -13 -56 -15 -70 -2 -14 -9 -45 -14 -70 -5 -25 -12
-56 -14 -70 -3 -14 -23 -115 -46 -225 -22 -110 -43 -212 -45 -226 -3 -14 -25
-122 -49 -240 -25 -119 -48 -230 -51 -247 -3 -18 -12 -65 -21 -105 -8 -39 -17
-88 -20 -107 -3 -19 -8 -38 -10 -42 -3 -4 -7 -25 -10 -46 l-6 -40 39 8 c143
31 404 42 638 26 61 -4 117 -9 125 -11 8 -2 44 -7 80 -10 36 -3 76 -8 90 -10
14 -2 45 -6 70 -9 25 -4 52 -8 60 -11 8 -2 33 -6 55 -10 68 -9 233 -45 379
-81 76 -19 141 -32 143 -30 12 12 -63 70 -147 114 -212 110 -469 186 -790 232
-111 16 -218 26 -390 36 -58 3 -108 8 -111 10 -4 2 -1 28 7 57 8 28 32 131 54
227 22 96 54 234 71 305 17 72 32 138 34 148 2 10 7 27 10 37 3 10 8 27 10 37
7 37 28 127 110 480 47 199 85 366 85 372 0 16 -20 13 -67 -10z"/>
<path d="M2781 2398 c10 -46 27 -119 38 -163 10 -44 41 -179 70 -300 28 -121
75 -323 105 -450 133 -565 158 -676 154 -681 -3 -2 -63 -7 -134 -9 -71 -3
-140 -7 -154 -10 -14 -2 -59 -7 -100 -10 -41 -4 -77 -8 -80 -10 -3 -2 -34 -6
-70 -10 -36 -4 -67 -8 -70 -10 -3 -2 -26 -6 -50 -10 -25 -3 -63 -11 -85 -17
-22 -5 -49 -12 -60 -14 -11 -2 -63 -16 -115 -30 -158 -45 -259 -86 -441 -180
-26 -14 -95 -84 -83 -84 4 0 80 18 168 40 89 21 177 42 196 45 19 3 42 8 50
10 8 2 31 7 50 10 40 6 95 16 125 21 11 2 40 7 65 10 25 3 53 8 64 10 10 2 51
6 90 10 39 3 73 8 76 9 11 7 233 18 345 18 138 1 269 -9 373 -27 40 -7 74 -10
76 -7 2 3 -23 134 -55 291 -32 157 -61 299 -64 315 -3 17 -19 95 -36 175 -16
80 -31 154 -33 166 -2 11 -21 101 -41 200 -20 98 -39 191 -42 207 -2 15 -17
91 -34 169 -26 131 -33 149 -74 209 -55 81 -130 152 -180 173 -64 27 -65 25
-44 -66z"/>
<path d="M790 2414 c-67 -29 -170 -150 -189 -220 -9 -35 -102 -493 -115 -569
-3 -16 -21 -104 -40 -195 -19 -91 -37 -178 -40 -195 -3 -16 -8 -41 -11 -55 -3
-14 -8 -36 -11 -50 -2 -14 -7 -36 -10 -50 -3 -14 -8 -38 -11 -55 -2 -16 -8
-46 -14 -65 -5 -19 -9 -45 -9 -56 0 -20 3 -21 43 -13 147 30 468 32 667 3 154
-22 356 -60 477 -89 81 -19 148 -34 149 -32 13 12 -68 69 -160 113 -239 113
-608 189 -937 193 l-56 1 13 58 c8 31 16 66 18 77 7 30 129 552 186 795 77
325 98 420 91 420 -3 -1 -22 -8 -41 -16z"/>
<path d="M2540 2416 c0 -8 14 -75 31 -148 17 -73 39 -167 49 -208 52 -225 135
-581 179 -765 27 -115 48 -211 48 -211 -1 -1 -58 -4 -127 -8 -69 -3 -141 -8
-160 -11 -19 -2 -55 -7 -80 -10 -263 -34 -486 -97 -662 -186 -55 -28 -133 -87
-125 -96 3 -2 60 10 128 27 68 17 140 33 159 36 19 3 51 9 70 14 19 5 53 11
75 15 23 3 50 7 61 9 12 2 45 7 74 11 29 4 60 8 69 10 142 27 538 25 664 -4
32 -8 37 -7 37 10 0 20 -16 103 -85 439 -26 124 -49 236 -51 250 -3 14 -19 93
-35 175 -17 83 -33 159 -35 170 -50 254 -57 282 -85 325 -51 79 -106 132 -162
155 -32 13 -37 13 -37 1z"/>
<path d="M984 2347 c-51 -29 -122 -107 -137 -151 -6 -14 -102 -479 -121 -581
-2 -11 -22 -111 -45 -223 -23 -111 -41 -209 -41 -217 0 -12 8 -14 33 -9 218
40 618 7 922 -77 89 -24 93 -24 66 5 -90 96 -423 191 -744 212 -51 4 -101 7
-112 8 -24 2 -25 -8 26 209 21 93 41 178 43 190 3 12 34 146 70 297 90 382 88
365 40 337z"/>
<path d="M2350 2344 c0 -8 21 -102 46 -207 25 -106 48 -200 50 -210 2 -10 32
-143 68 -295 82 -350 77 -317 41 -318 -46 -2 -214 -15 -233 -19 -9 -1 -39 -6
-67 -9 -215 -29 -480 -121 -544 -190 -29 -31 -30 -31 62 -7 292 78 662 114
867 84 46 -6 86 -10 89 -7 3 2 -5 55 -18 117 -13 62 -25 123 -28 137 -2 14
-15 77 -28 140 -13 63 -27 131 -30 150 -3 19 -13 64 -21 100 -8 36 -17 81 -20
100 -3 19 -15 76 -26 125 -10 50 -22 106 -25 125 -10 58 -74 142 -136 180 -39
24 -47 25 -47 4z"/>
<path d="M1758 1473 c6 -2 18 -2 25 0 6 3 1 5 -13 5 -14 0 -19 -2 -12 -5z"/>
<path d="M1818 1473 c12 -2 30 -2 40 0 9 3 -1 5 -23 4 -22 0 -30 -2 -17 -4z"/>
</g>
</svg>
