<?xml version="1.0" encoding="UTF-8"?>
<svg id="Layer_1" data-name="Layer 1" xmlns="http://www.w3.org/2000/svg" xmlns:xlink="http://www.w3.org/1999/xlink" viewBox="0 0 487.33 371.94">
  <defs>
    <style>
      .cls-1 {
        fill: #ce2028;
      }

      .cls-1, .cls-2, .cls-3, .cls-4, .cls-5 {
        stroke-width: 0px;
      }

      .cls-6 {
        font-family: Gadugi-Bold, Gadugi;
        font-size: 60px;
        font-weight: 700;
      }

      .cls-6, .cls-5 {
        fill: #1e429b;
      }

      .cls-7 {
        fill: #128bcc;
        stroke: #fff;
        stroke-miterlimit: 10;
        stroke-width: .5px;
      }

      .cls-8 {
        clip-path: url(#clippath-2);
      }

      .cls-2 {
        fill: #fbd116;
      }

      .cls-3 {
        fill: none;
      }

      .cls-9 {
        clip-path: url(#clippath-1);
      }

      .cls-10 {
        clip-path: url(#clippath-4);
      }

      .cls-4 {
        fill: #fff;
      }

      .cls-11 {
        clip-path: url(#clippath);
      }

      .cls-12 {
        clip-path: url(#clippath-3);
      }

      .cls-13 {
        clip-path: url(#clippath-5);
      }
    </style>
    <clipPath id="clippath">
      <rect class="cls-3" x="63.96" y="20.69" width="68.66" height="84.42"/>
    </clipPath>
    <clipPath id="clippath-1">
      <rect class="cls-3" x="132.62" y="20.69" width="68.66" height="84.42"/>
    </clipPath>
    <clipPath id="clippath-2">
      <rect class="cls-3" x="77.28" y="23" width="54.85" height="67.43"/>
    </clipPath>
    <clipPath id="clippath-3">
      <rect class="cls-3" x="132.12" y="23" width="54.85" height="67.43"/>
    </clipPath>
    <clipPath id="clippath-4">
      <rect class="cls-3" x="89.43" y="25.74" width="42.65" height="52.44"/>
    </clipPath>
    <clipPath id="clippath-5">
      <rect class="cls-3" x="132.08" y="25.74" width="42.65" height="52.44"/>
    </clipPath>
  </defs>
  <text class="cls-6" transform="translate(223.37 78.17)"><tspan x="0" y="0">CENTRAL</tspan></text>
  <g>
    <g id="_Mirror_Repeat_" data-name="&amp;lt;Mirror Repeat&amp;gt;">
      <g class="cls-11">
        <path class="cls-5" d="M63.96,99.1l13.68-67.46s5.04-10.07,11.72-10.95l-16.04,68.52s35.12-.53,56.87,13.25l2.43,2.65s-40.95-12.19-68.66-6Z"/>
      </g>
    </g>
    <g id="_Mirror_Repeat_-2" data-name="&amp;lt;Mirror Repeat&amp;gt;">
      <g class="cls-9">
        <path class="cls-5" d="M201.28,99.1l-13.68-67.46s-5.04-10.07-11.72-10.95l16.04,68.52s-35.12-.53-56.87,13.25l-2.43,2.65s40.95-12.19,68.66-6Z"/>
      </g>
    </g>
  </g>
  <g>
    <g id="_Mirror_Repeat_-3" data-name="&amp;lt;Mirror Repeat&amp;gt;">
      <g class="cls-8">
        <path class="cls-1" d="M77.28,85.64l10.93-53.89s4.02-8.04,9.36-8.75l-12.81,54.74s28.05-.42,45.43,10.58l1.94,2.12s-32.71-9.73-54.85-4.8Z"/>
      </g>
    </g>
    <g id="_Mirror_Repeat_-4" data-name="&amp;lt;Mirror Repeat&amp;gt;">
      <g class="cls-12">
        <path class="cls-1" d="M186.97,85.64l-10.93-53.89s-4.02-8.04-9.36-8.75l12.81,54.74s-28.05-.42-45.43,10.58l-1.94,2.12s32.71-9.73,54.85-4.8Z"/>
      </g>
    </g>
  </g>
  <g>
    <g id="_Mirror_Repeat_-5" data-name="&amp;lt;Mirror Repeat&amp;gt;">
      <g class="cls-10">
        <path class="cls-2" d="M89.43,74.44l8.5-41.91s3.13-6.25,7.28-6.8l-9.96,42.56s21.82-.33,35.33,8.23l1.51,1.65s-25.44-7.57-42.65-3.73Z"/>
      </g>
    </g>
    <g id="_Mirror_Repeat_-6" data-name="&amp;lt;Mirror Repeat&amp;gt;">
      <g class="cls-13">
        <path class="cls-2" d="M174.73,74.44l-8.5-41.91s-3.13-6.25-7.28-6.8l9.96,42.56s-21.82-.33-35.33,8.23l-1.51,1.65s25.44-7.57,42.65-3.73Z"/>
      </g>
    </g>
  </g>
  <path class="cls-5" d="M111.29,63.34l15.34-3.4c3.28-.6,9.34-2.43,12.64-2.29.1,0,.52.17.41.53-.11.28-.43.43-.66.56-1.5.84-3.45,1.2-4.69,2.32,1.11.54,2.65.38,3.9.45,2.61.01,5.22-.11,7.83-.26,5.22-.3,10.44-.72,15.65-1.18-2.55.1-28.93,3.48-27.8.79,1.3-1.46,3.64-1.71,5.2-2.83.05-.02.03-.12.03.08.08.15.07.06,0,.07-3.1-.04-9.27,1.86-12.37,2.49,0,0-15.26,3.63-15.26,3.63l-.24-.97h0Z"/>
  <path class="cls-7" d="M147.18,29.94c-1.56.75-4.03.42-6.04.09-1.1-.18-1.88-.3-2.47-.39-1.55-.24-1.89-.27-3.61-.59-.35-.06-.77-.14-1.26-.24-1.09-.21-2.82-.16-3.31,1.46-.29.96.34,1.93,1.22,3.17l-2.41,3.16c-1.8-3.1-2.64-4.72-2.7-5.38-.36-3.95,3.57-7.37,7.75-6.23,1.42.39,2.3.58,3.23.76.74.14,1.51.27,2.6.47.28.05.56.09.83.11,3.06.26,5.46-1.3,4.15-4.62-.11-.28-.23-.53-.36-.78l2.87-4.08c.83.99,1.73,2.07,2.37,3.16,2.81,3.91.39,8.35-2.86,9.92Z"/>
  <path class="cls-7" d="M132.53,44.75c-1.11.28-2.33,0-4.2-.42-.83-.18-1.78-.39-2.91-.58-.51-.09-.99-.15-1.43-.2-.92-.09-1.65-.07-2.15.13-.75.29-1.08,1.31-1.13,2.12-.04.6.13,1.08.41,1.53l-1.34,1.76c-.32-.66-.61-1.41-.82-2.23-.58-2.35.72-4.66,2.68-5.48,1.04-.44,1.94-.01,3.7.42.98.25,2.23.49,3.92.58.15.01.3.02.44.02,1.07.04,1.61-.06,1.88-.44.28-.4.15-.99-.27-1.85l2.44-3.46c.29.59.56,1.24.78,1.95.74,2.44.8,5.44-1.99,6.15Z"/>
  <path class="cls-7" d="M129.87,37.58c-.2-.34-.39-.66-.57-.97l2.41-3.16c.64.9,1.4,1.93,2.03,3.21l-2.44,3.46c-.32-.67-.82-1.5-1.43-2.53Z"/>
  <path class="cls-7" d="M123.23,54.41c-.64.83-1.61,1.16-2.8,1.14-.11,0-.21,0-.32-.02-.09,0-.18-.01-.27-.02-.88-.09-2.71-.65-4.09-1.16-.77-.29-1.4-.56-1.67-.73-.74-.47-1.48-.81-1.32-1.15.13-.25.79-.17,1.31-.07.9.41,1.71.73,2.41.98,2.78.98,4.15.88,4.81.51h0c.24-.14.39-.31.48-.47.05-.09.07-.18.07-.28l1.56-2.14.07-.09c.02.06.05.13.07.19.04.11.08.23.11.36.21.78.3,1.99-.44,2.94Z"/>
  <path class="cls-7" d="M121.86,53.15c.05-.83-1.15-2.11-2.09-4.06l1.34-1.76c.6.99,1.73,1.85,2.37,3.59l-.07.09-1.56,2.14Z"/>
  <path class="cls-7" d="M161.34,17.23c-.47-.24-4.46-3.14-6.01-6.6-.32-.62-1.03-1.29-1.94-1.91-.6-.4-1.28-.77-2-1.08-2.38-1.03-5.25-1.46-7.13-.14-1.76,1.24.97,5.63,1.19,6.36.07.25.25.55.5.9l-2.85,3.74c-.7-.94-1.54-2.16-2.53-4.05-.97-1.87-2.92-5.61-1.45-8.41,1.72-3.25,7.03-3.23,7.81-3.22,2.58.01,4.81.87,6.62,1.98.63.38,1.22.8,1.74,1.22,1.83,1.46,2.94,3.2,3.35,3.45s1.14.42,1.7.69c3.41,1.73,2.84,4.84,3.73,6.53.93,1.78-2.11.99-2.73.54Z"/>
  <path class="cls-7" d="M141,26.33c-.27-.02-.55-.06-.83-.11-1.09-.2-1.85-.33-2.6-.47l5.53-7.25,2.85-3.74,5.43-7.13c.73.32,1.41.69,2,1.08l-5.72,8.14-2.87,4.08-3.8,5.4Z"/>
  <path class="cls-7" d="M155.29,6.02c-.52-.42-1.11-.84-1.74-1.22l2.91-3.82s2.81-2.25,1.56,1.16l-2.73,3.88Z"/>
  <path class="cls-7" d="M129.25,42.38c-1.69-.1-2.94-.34-3.92-.58l3.96-5.19,2.41-3.16,3.35-4.39c1.72.32,2.06.35,3.61.59l-4.93,7.01-2.44,3.46-1.61,2.29c-.14,0-.28-.01-.44-.02Z"/>
  <path class="cls-7" d="M116.5,53.39l3.28-4.3,1.34-1.76,2.88-3.78c.44.05.92.11,1.43.2,1.13.19,2.08.39,2.91.58l-4.84,6.59-.07.09-1.56,2.14-.55.75h0c-.66.37-2.03.47-4.81-.51Z"/>
  <path class="cls-7" d="M117.34,56.74s.32,2.8-6.42,7.63c1.3-3.88,2.89-6.82,5.51-8.3l-1.18-1.06.5-.65c1.38.51,3.2,1.07,4.09,1.16.09,0,.18.02.27.02l-.05.07-1.19,1.77-1.53-.64Z"/>
  <ellipse id="eye_of_the_snake" data-name="eye of the snake" class="cls-4" cx="160.19" cy="11.99" rx=".2" ry=".49" transform="translate(54.92 133.33) rotate(-53.34)"/>
</svg>